<svg width="25" height="47" viewBox="0 0 25 47" fill="none" xmlns="http://www.w3.org/2000/svg">
<path d="M2.27515 20.2128C1.40706 20.2128 0.700928 21.1657 0.700928 22.3372V33.5102C0.700928 34.6817 1.40706 35.6346 2.27515 35.6346C3.14325 35.6346 3.84938 34.6817 3.84938 33.5102V22.3285C3.84938 21.157 3.14325 20.204 2.27515 20.204V20.2128Z" fill="#11BB99"/>
<path d="M7.37354 16.0688C6.50545 16.0688 5.79932 17.0218 5.79932 18.1933V37.6455C5.79932 38.817 6.50545 39.7699 7.37354 39.7699C8.24164 39.7699 8.94777 38.817 8.94777 37.6455V18.1845C8.94777 17.013 8.24164 16.0601 7.37354 16.0601V16.0688Z" fill="#11BB99"/>
<path d="M19.5657 30.0132V37.6455C19.5657 38.817 18.8596 39.7699 17.9915 39.7699C17.1234 39.7699 16.4172 38.817 16.4172 37.6455V31.9016C17.5315 31.447 18.581 30.8088 19.5592 30.0132H19.5657Z" fill="#11BB99"/>
<path d="M14.0462 28.7193V44.8756C14.0462 46.0471 13.34 47 12.4719 47C11.6038 47 10.8977 46.0471 10.8977 44.8756V2.12444C10.8977 0.952937 11.6038 1.31482e-06 12.4719 1.31482e-06C18.3737 1.31482e-06 23.1741 6.47824 23.1741 14.4427C23.1741 21.6815 19.2029 27.6964 14.0462 28.7281V28.7193ZM14.0462 4.45871V24.418C17.4602 23.4388 20.0321 19.3385 20.0321 14.4427C20.0321 9.54687 17.4602 5.44661 14.0462 4.46745V4.45871Z" fill="#11BB99"/>
<path d="M24.6641 22.7394V33.5102C24.6641 34.6817 23.9579 35.6346 23.0899 35.6346C22.2218 35.6346 21.5156 34.6817 21.5156 33.5102V28.0811C22.7854 26.5774 23.8608 24.7764 24.6576 22.7481L24.6641 22.7394Z" fill="#11BB99"/>
</svg>
